<?xml version="1.0" standalone="yes"?>
<svg xmlns="http://www.w3.org/2000/svg" width="225" height="225">
<path style="fill:#ffffff; stroke:none;" d="M0 0L0 225L225 225L225 0L0 0z"/>
<path style="fill:#ae9d9b; stroke:none;" d="M23 94L24 95L23 94z"/>
<path style="fill:#040404; stroke:none;" d="M24 94L8 130C18.466 129.168 18.8493 111.146 26 105C27.1608 112.469 32.5347 129.327 41 130C38.103 119.408 31.7944 101.772 24 94z"/>
<path style="fill:#5e5e5e; stroke:none;" d="M25 94L26 95L25 94z"/>
<path style="fill:#ae9d9b; stroke:none;" d="M48 94L48 95L60 95L48 94M89.6667 94.3333L90.3333 94.6667L89.6667 94.3333z"/>
<path style="fill:#5e5e5e; stroke:none;" d="M91 94L92 95L91 94z"/>
<path style="fill:#040404; stroke:none;" d="M92 94C74.3208 102.023 71.0382 125.781 93 131L93 126C79.1065 121.274 79.1065 103.726 93 99L92 94z"/>
<path style="fill:#5e5e5e; stroke:none;" d="M93 94L93 99L94 99L93 94z"/>
<path style="fill:#ae9d9b; stroke:none;" d="M112.667 94.3333L113.333 94.6667L112.667 94.3333z"/>
<path style="fill:#5e5e5e; stroke:none;" d="M114.667 94.3333L115.333 94.6667L114.667 94.3333z"/>
<path style="fill:#040404; stroke:none;" d="M135 112L121 112L121 117L130 117C125.042 129.632 107.784 127.844 105.626 114C103.546 100.654 120.898 95.2632 129 104C139.306 98.0916 118.39 93.4729 113 95.2245C110.03 96.1896 107.435 97.7683 105.34 100.105C87.7591 119.721 123.159 145.127 133.633 121.961C135.07 118.781 134.99 115.41 135 112z"/>
<path style="fill:#5e5e5e; stroke:none;" d="M123 94L124 95L123 94z"/>
<path style="fill:#ae9d9b; stroke:none;" d="M124.667 94.3333L125.333 94.6667L124.667 94.3333z"/>
<path style="fill:#e45947; stroke:none;" d="M154 94L138 130C148.744 129.17 149.275 111.66 156 105C157.46 113.215 162.527 129.685 172 130L156 94L154 94z"/>
<path style="fill:#ae9d9b; stroke:none;" d="M170 94L170 100L171 100L171 95L193 95L170 94M198 94L198 95L218 95L198 94z"/>
<path style="fill:#5e5e5e; stroke:none;" d="M23 95L24 96L23 95z"/>
<path style="fill:#ae9d9b; stroke:none;" d="M26 95L27 96L26 95z"/>
<path style="fill:#5e5e5e; stroke:none;" d="M48 95C48 103.27 43.573 130.188 54 131L54 130L49 130L48 95z"/>
<path style="fill:#040404; stroke:none;" d="M49 95L49 130L54 130L54 115L55 115C58.4387 121.913 62.6403 129.728 71 130L61 115C67.8305 111.369 71.7923 102.123 63.892 96.858C59.7484 94.0965 53.7269 95 49 95z"/>
<path style="fill:#5e5e5e; stroke:none;" d="M61 95L62 96L61 95z"/>
<path style="fill:#ae9d9b; stroke:none;" d="M62 95L63 96L62 95M87 95L88 96L87 95z"/>
<path style="fill:#5e5e5e; stroke:none;" d="M88 95L89 96L88 95M111 95L112 96L111 95M126 95L127 96L126 95z"/>
<path style="fill:#ae9d9b; stroke:none;" d="M127 95L128 96L127 95M153 95L154 96L153 95M156 95L157 96L156 95z"/>
<path style="fill:#040404; stroke:none;" d="M171 95L171 99L179 99L179 130L184 130L184 99L192 99L192 95L171 95z"/>
<path style="fill:#5e5e5e; stroke:none;" d="M192 95L192 99L184 99L184 100C187.758 99.9867 193.733 100.289 192 95z"/>
<path style="fill:#040404; stroke:none;" d="M198 95L198 130L218 130L218 126C214.359 126 208.485 127.085 205.318 124.972C193.798 117.285 212.093 113 217 113L217 109C213.573 109 195.187 106.806 205.318 100.028C208.479 97.9126 214.363 99 218 99L218 95L198 95z"/>
<path style="fill:#ae9d9b; stroke:none;" d="M22 96L23 97L22 96z"/>
<path style="fill:#5e5e5e; stroke:none;" d="M26 96L27 97L26 96z"/>
<path style="fill:#ae9d9b; stroke:none;" d="M64 96L65 97L64 96M85 96L86 97L85 96M108 96L109 97L108 96z"/>
<path style="fill:#5e5e5e; stroke:none;" d="M109 96L110 97L109 96z"/>
<path style="fill:#ae9d9b; stroke:none;" d="M129 96L130 97L129 96z"/>
<path style="fill:#5e5e5e; stroke:none;" d="M22 97L23 98L22 97z"/>
<path style="fill:#ae9d9b; stroke:none;" d="M27 97L28 98L27 97z"/>
<path style="fill:#5e5e5e; stroke:none;" d="M65 97L66 98L65 97M84 97L85 98L84 97z"/>
<path style="fill:#ae9d9b; stroke:none;" d="M107 97L108 98L107 97M130 97L131 98L130 97M152 97L153 98L152 97M157 97L158 98L157 97M21 98L22 99L21 98z"/>
<path style="fill:#5e5e5e; stroke:none;" d="M27 98L28 99L27 98z"/>
<path style="fill:#ae9d9b; stroke:none;" d="M66 98L67 99L66 98z"/>
<path style="fill:#5e5e5e; stroke:none;" d="M83 98L84 99L83 98z"/>
<path style="fill:#ae9d9b; stroke:none;" d="M106 98L107 99L106 98z"/>
<path style="fill:#5e5e5e; stroke:none;" d="M131 98L132 99L131 98M21 99L22 100L21 99z"/>
<path style="fill:#ae9d9b; stroke:none;" d="M28.3333 99.6667L28.6667 100.333L28.3333 99.6667z"/>
<path style="fill:#5e5e5e; stroke:none;" d="M54 99L54 100L59 100L54 99z"/>
<path style="fill:#ae9d9b; stroke:none;" d="M67 99L68 100L67 99z"/>
<path style="fill:#5e5e5e; stroke:none;" d="M90.6667 99.3333L91.3333 99.6667L90.6667 99.3333z"/>
<path style="fill:#ae9d9b; stroke:none;" d="M92 99L93 100L92 99z"/>
<path style="fill:#5e5e5e; stroke:none;" d="M105 99L106 100L105 99M114 99L115 100L114 99z"/>
<path style="fill:#ae9d9b; stroke:none;" d="M115.667 99.3333L116.333 99.6667L115.667 99.3333M121.667 99.3333L122.333 99.6667L121.667 99.3333z"/>
<path style="fill:#5e5e5e; stroke:none;" d="M123 99L124 100L123 99M132 99L133 100L132 99z"/>
<path style="fill:#ae9d9b; stroke:none;" d="M151 99L152 100L151 99M158 99L159 100L158 99z"/>
<path style="fill:#5e5e5e; stroke:none;" d="M171 99L171 100L179 100L171 99z"/>
<path style="fill:#ae9d9b; stroke:none;" d="M192 99L193 100L192 99z"/>
<path style="fill:#5e5e5e; stroke:none;" d="M204 99L204 100L218 100L204 99z"/>
<path style="fill:#ae9d9b; stroke:none;" d="M20 100L21 101L20 100z"/>
<path style="fill:#ffffff; stroke:none;" d="M54 100L54 111C64.4018 110.056 64.6125 100.581 54 100z"/>
<path style="fill:#ae9d9b; stroke:none;" d="M59 100L60 101L59 100z"/>
<path style="fill:#5e5e5e; stroke:none;" d="M60 100L61 101L60 100M67 100L68 101L67 100M81 100L82 101L81 100M88 100L89 101L88 100z"/>
<path style="fill:#ae9d9b; stroke:none;" d="M89 100L90 101L89 100M104 100L105 101L104 100z"/>
<path style="fill:#5e5e5e; stroke:none;" d="M112 100L113 101L112 100z"/>
<path style="fill:#ae9d9b; stroke:none;" d="M113 100L114 101L113 100M124 100L125 101L124 100z"/>
<path style="fill:#5e5e5e; stroke:none;" d="M125 100L126 101L125 100M133.333 100.667L133.667 101.333L133.333 100.667z"/>
<path style="fill:#ae9d9b; stroke:none;" d="M178 100L178 130L179 130L178 100M184 100L184 131L185 131L184 100z"/>
<path style="fill:#5e5e5e; stroke:none;" d="M203 100L203 108L204 108L203 100M20 101L21 102L20 101M28 101L29 102L28 101z"/>
<path style="fill:#ae9d9b; stroke:none;" d="M61 101L62 102L61 101z"/>
<path style="fill:#5e5e5e; stroke:none;" d="M80 101L81 102L80 101M87 101L88 102L87 101z"/>
<path style="fill:#ae9d9b; stroke:none;" d="M103 101L104 102L103 101M111 101L112 102L111 101M126 101L127 102L126 101M150 101L151 102L150 101M19.3333 102.667L19.6667 103.333L19.3333 102.667M29 102L30 103L29 102M62 102L63 103L62 102z"/>
<path style="fill:#5e5e5e; stroke:none;" d="M68.3333 102.667L68.6667 103.333L68.3333 102.667z"/>
<path style="fill:#ae9d9b; stroke:none;" d="M79 102L80 103L79 102z"/>
<path style="fill:#5e5e5e; stroke:none;" d="M86 102L87 103L86 102M103 102L104 103L103 102z"/>
<path style="fill:#ae9d9b; stroke:none;" d="M110 102L111 103L110 102z"/>
<path style="fill:#5e5e5e; stroke:none;" d="M128 102L129 103L128 102M132 102L133 103L132 102z"/>
<path style="fill:#ae9d9b; stroke:none;" d="M159 102L160 103L159 102z"/>
<path style="fill:#5e5e5e; stroke:none;" d="M79 103L80 104L79 103M85 103L86 104L85 103z"/>
<path style="fill:#ae9d9b; stroke:none;" d="M102 103L103 104L102 103M109 103L110 104L109 103z"/>
<path style="fill:#5e5e5e; stroke:none;" d="M131 103L132 104L131 103z"/>
<path style="fill:#ae9d9b; stroke:none;" d="M30 104L31 105L30 104z"/>
<path style="fill:#5e5e5e; stroke:none;" d="M63 104L63 107L64 107L63 104z"/>
<path style="fill:#ae9d9b; stroke:none;" d="M78 104L79 105L78 104z"/>
<path style="fill:#5e5e5e; stroke:none;" d="M84 104L85 105L84 104z"/>
<path style="fill:#ae9d9b; stroke:none;" d="M108 104L109 105L108 104M129 104L130 105L129 104z"/>
<path style="fill:#5e5e5e; stroke:none;" d="M130 104L131 105L130 104z"/>
<path style="fill:#ae9d9b; stroke:none;" d="M160 104L161 105L160 104z"/>
<path style="fill:#5e5e5e; stroke:none;" d="M18 105L19 106L18 105z"/>
<path style="fill:#ae9d9b; stroke:none;" d="M24 105L25 108L26 108L24 105z"/>
<path style="fill:#5e5e5e; stroke:none;" d="M25 105L26 106L25 105M30 105L31 106L30 105z"/>
<path style="fill:#ae9d9b; stroke:none;" d="M101 105L102 106L101 105z"/>
<path style="fill:#5e5e5e; stroke:none;" d="M107 105L108 106L107 105z"/>
<path style="fill:#ae9d9b; stroke:none;" d="M148.333 105.667L148.667 106.333L148.333 105.667M154.667 105.333L155.333 105.667L154.667 105.333z"/>
<path style="fill:#5e5e5e; stroke:none;" d="M23 106L24 107L23 106z"/>
<path style="fill:#ae9d9b; stroke:none;" d="M31 106L32 107L31 106z"/>
<path style="fill:#5e5e5e; stroke:none;" d="M68.3333 106.667L68.6667 107.333L68.3333 106.667z"/>
<path style="fill:#ae9d9b; stroke:none;" d="M77 106L78 107L77 106z"/>
<path style="fill:#5e5e5e; stroke:none;" d="M83 106L84 107L83 106M101 106L102 107L101 106z"/>
<path style="fill:#ae9d9b; stroke:none;" d="M107 106L108 107L107 106M161 106L162 107L161 106M17 107L18 108L17 107M23 107L24 108L23 107z"/>
<path style="fill:#5e5e5e; stroke:none;" d="M31 107L32 108L31 107M77.3333 107.667L77.6667 108.333L77.3333 107.667z"/>
<path style="fill:#ae9d9b; stroke:none;" d="M83 107L84 108L83 107M100 107L100 110L101 110L100 107z"/>
<path style="fill:#5e5e5e; stroke:none;" d="M106 107L107 108L106 107z"/>
<path style="fill:#ae9d9b; stroke:none;" d="M153 107L154 108L153 107z"/>
<path style="fill:#5e5e5e; stroke:none;" d="M17 108L18 109L17 108M22 108L23 109L22 108M26 108L27 109L26 108z"/>
<path style="fill:#ae9d9b; stroke:none;" d="M32 108L33 109L32 108z"/>
<path style="fill:#5e5e5e; stroke:none;" d="M62 108L63 109L62 108z"/>
<path style="fill:#ae9d9b; stroke:none;" d="M68 108L69 109L68 108z"/>
<path style="fill:#5e5e5e; stroke:none;" d="M82.3333 108.667L82.6667 109.333L82.3333 108.667z"/>
<path style="fill:#ae9d9b; stroke:none;" d="M106.333 108.667L106.667 109.333L106.333 108.667M156 108L157 109L156 108M162 108L163 109L162 108z"/>
<path style="fill:#5e5e5e; stroke:none;" d="M204 108L204 109L217 109L216 114L217 114L218 108L204 108z"/>
<path style="fill:#ae9d9b; stroke:none;" d="M16 109L17 110L16 109M22 109L23 110L22 109M26 109L27 110L26 109z"/>
<path style="fill:#5e5e5e; stroke:none;" d="M32 109L33 110L32 109M61 109L62 110L61 109M67 109L68 110L67 109z"/>
<path style="fill:#ae9d9b; stroke:none;" d="M76 109L76 116L77 116L76 109M152 109L153 110L152 109z"/>
<path style="fill:#5e5e5e; stroke:none;" d="M16 110L17 111L16 110M21 110L22 111L21 110z"/>
<path style="fill:#ae9d9b; stroke:none;" d="M58.6667 110.333L59.3333 110.667L58.6667 110.333z"/>
<path style="fill:#5e5e5e; stroke:none;" d="M60 110L61 111L60 110z"/>
<path style="fill:#ae9d9b; stroke:none;" d="M67 110L68 111L67 110M82 110L82 116L83 116L82 110z"/>
<path style="fill:#5e5e5e; stroke:none;" d="M100 110L100 115L101 115L100 110M105 110L105 115L106 115L105 110z"/>
<path style="fill:#ae9d9b; stroke:none;" d="M146 110L147 111L146 110M157 110L158 111L157 110M15 111L16 112L15 111M21 111L22 112L21 111M27 111L28 112L27 111z"/>
<path style="fill:#5e5e5e; stroke:none;" d="M33.3333 111.667L33.6667 112.333L33.3333 111.667M66 111L67 112L66 111z"/>
<path style="fill:#ae9d9b; stroke:none;" d="M121 111L121 112L136 112L121 111M151 111L152 112L151 111M163 111L164 112L163 111z"/>
<path style="fill:#5e5e5e; stroke:none;" d="M28 112L29 113L28 112M65 112L66 113L65 112z"/>
<path style="fill:#ae9d9b; stroke:none;" d="M120 112L120 117L121 117L120 112z"/>
<path style="fill:#5e5e5e; stroke:none;" d="M135 112L135 118L136 118L135 112z"/>
<path style="fill:#ae9d9b; stroke:none;" d="M145 112L146 113L145 112M158 112L159 113L158 112M14 113L15 114L14 113z"/>
<path style="fill:#5e5e5e; stroke:none;" d="M20 113L21 114L20 113z"/>
<path style="fill:#ae9d9b; stroke:none;" d="M28 113L29 114L28 113M34 113L35 114L34 113z"/>
<path style="fill:#5e5e5e; stroke:none;" d="M64 113L65 114L64 113z"/>
<path style="fill:#ae9d9b; stroke:none;" d="M164 113L165 114L164 113M204 113L204 114L216 114L204 113M217 113L218 114L217 113z"/>
<path style="fill:#5e5e5e; stroke:none;" d="M14 114L15 115L14 114M34 114L35 115L34 114M62 114L63 115L62 114z"/>
<path style="fill:#ae9d9b; stroke:none;" d="M63 114L64 115L63 114M144 114L145 115L144 114M150 114L151 115L150 114z"/>
<path style="fill:#5e5e5e; stroke:none;" d="M203 114L203 125L204 125L203 114z"/>
<path style="fill:#ae9d9b; stroke:none;" d="M13 115L14 116L13 115z"/>
<path style="fill:#5e5e5e; stroke:none;" d="M19 115L20 116L19 115M29 115L30 116L29 115z"/>
<path style="fill:#ae9d9b; stroke:none;" d="M35 115L36 116L35 115z"/>
<path style="fill:#5e5e5e; stroke:none;" d="M54 115L55 116L54 115z"/>
<path style="fill:#ae9d9b; stroke:none;" d="M61.3333 115.667L61.6667 116.333L61.3333 115.667M100 115L100 118L101 118L100 115M159 115L160 116L159 115M165 115L166 116L165 115z"/>
<path style="fill:#5e5e5e; stroke:none;" d="M13 116L14 117L13 116z"/>
<path style="fill:#ae9d9b; stroke:none;" d="M19 116L20 117L19 116M29 116L30 117L29 116z"/>
<path style="fill:#5e5e5e; stroke:none;" d="M35 116L36 117L35 116M55 116L56 117L55 116M82 116L83 117L82 116z"/>
<path style="fill:#ae9d9b; stroke:none;" d="M106 116L107 117L106 116M143 116L144 117L143 116M149 116L150 117L149 116M12 117L13 118L12 117z"/>
<path style="fill:#5e5e5e; stroke:none;" d="M18 117L19 118L18 117M30 117L31 118L30 117z"/>
<path style="fill:#ae9d9b; stroke:none;" d="M36 117L37 118L36 117M62 117L63 118L62 117z"/>
<path style="fill:#5e5e5e; stroke:none;" d="M77 117L78 118L77 117M106 117L107 118L106 117z"/>
<path style="fill:#ae9d9b; stroke:none;" d="M129 117L130 118L129 117M160 117L161 118L160 117M166 117L167 118L166 117z"/>
<path style="fill:#5e5e5e; stroke:none;" d="M12 118L13 119L12 118z"/>
<path style="fill:#ae9d9b; stroke:none;" d="M18 118L19 119L18 118M30 118L31 119L30 118z"/>
<path style="fill:#5e5e5e; stroke:none;" d="M36 118L37 119L36 118z"/>
<path style="fill:#ae9d9b; stroke:none;" d="M56 118L57 119L56 118M77 118L78 119L77 118M83 118L84 119L83 118z"/>
<path style="fill:#5e5e5e; stroke:none;" d="M101.333 118.667L101.667 119.333L101.333 118.667M129 118L130 119L129 118z"/>
<path style="fill:#ae9d9b; stroke:none;" d="M135 118L136 119L135 118M142 118L143 119L142 118M148 118L149 119L148 118z"/>
<path style="fill:#5e5e5e; stroke:none;" d="M31 119L32 120L31 119z"/>
<path style="fill:#ae9d9b; stroke:none;" d="M37 119L38 120L37 119z"/>
<path style="fill:#5e5e5e; stroke:none;" d="M57 119L58 120L57 119M63 119L64 120L63 119M107 119L108 120L107 119z"/>
<path style="fill:#ae9d9b; stroke:none;" d="M161 119L162 120L161 119M167 119L168 120L167 119z"/>
<path style="fill:#5e5e5e; stroke:none;" d="M11.3333 120.667L11.6667 121.333L11.3333 120.667z"/>
<path style="fill:#ae9d9b; stroke:none;" d="M17 120L18 121L17 120M31 120L32 121L31 120z"/>
<path style="fill:#5e5e5e; stroke:none;" d="M37 120L38 121L37 120M58 120L59 121L58 120M64 120L65 121L64 120M78 120L79 121L78 120M84 120L85 121L84 120z"/>
<path style="fill:#ae9d9b; stroke:none;" d="M108 120L109 121L108 120M128 120L129 121L128 120z"/>
<path style="fill:#5e5e5e; stroke:none;" d="M134 120L135 121L134 120z"/>
<path style="fill:#ae9d9b; stroke:none;" d="M141 120L142 121L141 120M147 120L148 121L147 120z"/>
<path style="fill:#5e5e5e; stroke:none;" d="M16 121L17 122L16 121M32 121L33 122L32 121z"/>
<path style="fill:#ae9d9b; stroke:none;" d="M58 121L59 122L58 121M65 121L66 122L65 121M78 121L79 122L78 121M85 121L86 122L85 121z"/>
<path style="fill:#5e5e5e; stroke:none;" d="M102 121L103 122L102 121z"/>
<path style="fill:#ae9d9b; stroke:none;" d="M109 121L111 123L109 121z"/>
<path style="fill:#5e5e5e; stroke:none;" d="M128 121L129 122L128 121z"/>
<path style="fill:#ae9d9b; stroke:none;" d="M134 121L135 122L134 121M10 122L11 123L10 122M16 122L17 123L16 122M32 122L33 123L32 122M38 122L39 123L38 122z"/>
<path style="fill:#5e5e5e; stroke:none;" d="M59 122L60 123L59 122M79 122L80 123L79 122z"/>
<path style="fill:#ae9d9b; stroke:none;" d="M86 122L87 123L86 122z"/>
<path style="fill:#5e5e5e; stroke:none;" d="M109 122L110 123L109 122M127 122L128 123L127 122M133 122L134 123L133 122z"/>
<path style="fill:#ae9d9b; stroke:none;" d="M146 122L147 123L146 122M168 122L169 123L168 122z"/>
<path style="fill:#5e5e5e; stroke:none;" d="M15 123L16 124L15 123M60 123L61 124L60 123M66 123L67 124L66 123M80 123L81 124L80 123z"/>
<path style="fill:#ae9d9b; stroke:none;" d="M87 123L88 124L87 123M103 123L104 124L103 123M111 123L112 124L111 123M133 123L134 124L133 123M140 123L141 124L140 123M163.333 123.667L163.667 124.333L163.333 123.667M9 124L10 125L9 124M15 124L16 125L15 124z"/>
<path style="fill:#5e5e5e; stroke:none;" d="M33 124L34 125L33 124z"/>
<path style="fill:#ae9d9b; stroke:none;" d="M39 124L40 125L39 124M60 124L61 125L60 124M67 124L68 125L67 124M80 124L81 125L80 124z"/>
<path style="fill:#5e5e5e; stroke:none;" d="M88 124L89 125L88 124z"/>
<path style="fill:#ae9d9b; stroke:none;" d="M89 124L90 125L89 124z"/>
<path style="fill:#5e5e5e; stroke:none;" d="M104 124L105 125L104 124M112 124L113 125L112 124z"/>
<path style="fill:#ae9d9b; stroke:none;" d="M113 124L114 125L113 124M124 124L125 125L124 124z"/>
<path style="fill:#5e5e5e; stroke:none;" d="M125 124L126 125L125 124M132 124L133 125L132 124z"/>
<path style="fill:#ae9d9b; stroke:none;" d="M145.333 124.667L145.667 125.333L145.333 124.667M169 124L170 125L169 124M33 125L34 126L33 125z"/>
<path style="fill:#5e5e5e; stroke:none;" d="M39 125L40 126L39 125z"/>
<path style="fill:#ae9d9b; stroke:none;" d="M61 125L62 126L61 125M68 125L69 126L68 125M81 125L82 126L81 125z"/>
<path style="fill:#5e5e5e; stroke:none;" d="M90 125L91 126L90 125z"/>
<path style="fill:#ae9d9b; stroke:none;" d="M91.6667 125.333L92.3333 125.667L91.6667 125.333z"/>
<path style="fill:#5e5e5e; stroke:none;" d="M105 125L106 126L105 125M114 125L115 126L114 125z"/>
<path style="fill:#ae9d9b; stroke:none;" d="M115 125L116 126L115 125M122 125L123 126L122 125z"/>
<path style="fill:#5e5e5e; stroke:none;" d="M123 125L124 126L123 125z"/>
<path style="fill:#ae9d9b; stroke:none;" d="M139 125L140 126L139 125M204 125L204 126L218 126L204 125M8 126L9 127L8 126z"/>
<path style="fill:#5e5e5e; stroke:none;" d="M14 126L15 127L14 126M34 126L35 127L34 126z"/>
<path style="fill:#ae9d9b; stroke:none;" d="M40 126L41 127L40 126z"/>
<path style="fill:#5e5e5e; stroke:none;" d="M62 126L63 127L62 126z"/>
<path style="fill:#ae9d9b; stroke:none;" d="M82 126L83 127L82 126z"/>
<path style="fill:#5e5e5e; stroke:none;" d="M93 126L93 131L94 131L93 126M106 126L107 127L106 126M130 126L131 127L130 126z"/>
<path style="fill:#ae9d9b; stroke:none;" d="M164 126L165 127L164 126M170 126L171 127L170 126z"/>
<path style="fill:#5e5e5e; stroke:none;" d="M8 127L9 128L8 127z"/>
<path style="fill:#ae9d9b; stroke:none;" d="M14 127L15 128L14 127M34 127L35 128L34 127z"/>
<path style="fill:#5e5e5e; stroke:none;" d="M40 127L41 128L40 127M69 127L70 128L69 127z"/>
<path style="fill:#ae9d9b; stroke:none;" d="M83 127L84 128L83 127M107 127L108 128L107 127z"/>
<path style="fill:#5e5e5e; stroke:none;" d="M129 127L130 128L129 127z"/>
<path style="fill:#ae9d9b; stroke:none;" d="M138 127L139 128L138 127M144 127L145 128L144 127M7 128L8 129L7 128z"/>
<path style="fill:#5e5e5e; stroke:none;" d="M13 128L14 129L13 128M35 128L36 129L35 128z"/>
<path style="fill:#ae9d9b; stroke:none;" d="M63 128L64 129L63 128M70 128L71 129L70 128z"/>
<path style="fill:#5e5e5e; stroke:none;" d="M85 128L86 129L85 128z"/>
<path style="fill:#ae9d9b; stroke:none;" d="M108 128L109 129L108 128z"/>
<path style="fill:#5e5e5e; stroke:none;" d="M128 128L129 129L128 128z"/>
<path style="fill:#ae9d9b; stroke:none;" d="M165 128L166 129L165 128M171 128L172 129L171 128z"/>
<path style="fill:#5e5e5e; stroke:none;" d="M7 129L12 131L12 130L7 129z"/>
<path style="fill:#ae9d9b; stroke:none;" d="M13 129L14 130L13 129M35 129L36 130L35 129z"/>
<path style="fill:#5e5e5e; stroke:none;" d="M41 129L36 130L36 131L41 129M64 129L65 130L64 129z"/>
<path style="fill:#ae9d9b; stroke:none;" d="M71 129L72 130L71 129z"/>
<path style="fill:#5e5e5e; stroke:none;" d="M87 129L88 130L87 129z"/>
<path style="fill:#ae9d9b; stroke:none;" d="M110 129L111 130L110 129z"/>
<path style="fill:#5e5e5e; stroke:none;" d="M111 129L112 130L111 129M126 129L127 130L126 129z"/>
<path style="fill:#ae9d9b; stroke:none;" d="M137 129L143 131L143 130L137 129M143 129L144 130L143 129M12 130L13 131L12 130M48 130L49 131L48 130z"/>
<path style="fill:#5e5e5e; stroke:none;" d="M65 130L65 131L72 131L65 130z"/>
<path style="fill:#ae9d9b; stroke:none;" d="M88.6667 130.333L89.3333 130.667L88.6667 130.333z"/>
<path style="fill:#5e5e5e; stroke:none;" d="M90 130L91 131L90 130z"/>
<path style="fill:#ae9d9b; stroke:none;" d="M112 130L113 131L112 130z"/>
<path style="fill:#5e5e5e; stroke:none;" d="M113 130L114 131L113 130M123 130L124 131L123 130z"/>
<path style="fill:#ae9d9b; stroke:none;" d="M124.667 130.333L125.333 130.667L124.667 130.333M166 130L166 131L172 131L166 130z"/>
<path style="fill:#5e5e5e; stroke:none;" d="M179 130L179 131L184 131L179 130M198 130L198 131L218 131L198 130z"/>
</svg>
